<?xml version="1.0" encoding="UTF-8" standalone="no"?>
<!DOCTYPE svg PUBLIC "-//W3C//DTD SVG 1.1//EN"
 "http://www.w3.org/Graphics/SVG/1.1/DTD/svg11.dtd">
<!-- Generated by graphviz version 2.26.0 (20091210.2329)
 -->
<!-- Title: structs Pages: 1 -->
<svg width="1578pt" height="570pt"
 viewBox="0.00 0.00 1578.00 570.00" xmlns="http://www.w3.org/2000/svg" xmlns:xlink="http://www.w3.org/1999/xlink">
<g id="graph1" class="graph" transform="scale(1 1) rotate(0) translate(4 566)">
<title>structs</title>
<polygon fill="white" stroke="white" points="-4,5 -4,-566 1575,-566 1575,5 -4,5"/>
<!-- dcm_nii_resample_v2__mri_t1 -->
<g id="node1" class="node"><title>dcm_nii_resample_v2__mri_t1</title>
<polygon fill="#caff70" stroke="black" points="2,-35 2,-89 224,-89 224,-35 2,-35"/>
<text text-anchor="middle" x="113" y="-72.4" font-family="Times Roman,serif" font-size="14.00">mri_t1</text>
<polyline fill="none" stroke="black" points="2,-62 224,-62 "/>
<text text-anchor="middle" x="44" y="-45.4" font-family="Times Roman,serif" font-size="14.00"> </text>
<polyline fill="none" stroke="black" points="86,-35 86,-62 "/>
<text text-anchor="middle" x="155" y="-45.4" font-family="Times Roman,serif" font-size="14.00">output [N]</text>
</g>
<!-- dcm_nii_resample_v2__DicomToNifti_t1 -->
<g id="node5" class="node"><title>dcm_nii_resample_v2__DicomToNifti_t1</title>
<polygon fill="#e5e5e5" stroke="black" points="265.5,-35 265.5,-89 580.5,-89 580.5,-35 265.5,-35"/>
<text text-anchor="middle" x="423" y="-72.4" font-family="Times Roman,serif" font-size="14.00">DicomToNifti_t1</text>
<polyline fill="none" stroke="black" points="265.5,-62 580.5,-62 "/>
<text text-anchor="middle" x="354.5" y="-45.4" font-family="Times Roman,serif" font-size="14.00">[N] dicom_image</text>
<polyline fill="none" stroke="black" points="443.5,-35 443.5,-62 "/>
<text text-anchor="middle" x="512" y="-45.4" font-family="Times Roman,serif" font-size="14.00">image [N]</text>
</g>
<!-- dcm_nii_resample_v2__mri_t1&#45;&gt;dcm_nii_resample_v2__DicomToNifti_t1 -->
<g id="edge2" class="edge"><title>dcm_nii_resample_v2__mri_t1:o_output&#45;&gt;dcm_nii_resample_v2__DicomToNifti_t1:i_dicom_image</title>
<path fill="none" stroke="black" d="M224,-48C238.236,-48 244.131,-48 254.717,-48"/>
<polygon fill="black" stroke="black" points="255,-51.5001 265,-48 255,-44.5001 255,-51.5001"/>
</g>
<!-- dcm_nii_resample_v2__mri_t2 -->
<g id="node2" class="node"><title>dcm_nii_resample_v2__mri_t2</title>
<polygon fill="#caff70" stroke="black" points="0.5,-180 0.5,-234 225.5,-234 225.5,-180 0.5,-180"/>
<text text-anchor="middle" x="113" y="-217.4" font-family="Times Roman,serif" font-size="14.00">mri_t2</text>
<polyline fill="none" stroke="black" points="0.5,-207 225.5,-207 "/>
<text text-anchor="middle" x="42.5" y="-190.4" font-family="Times Roman,serif" font-size="14.00"> </text>
<polyline fill="none" stroke="black" points="84.5,-180 84.5,-207 "/>
<text text-anchor="middle" x="155" y="-190.4" font-family="Times Roman,serif" font-size="14.00">output [M]</text>
</g>
<!-- dcm_nii_resample_v2__DicomToNifti_t2 -->
<g id="node7" class="node"><title>dcm_nii_resample_v2__DicomToNifti_t2</title>
<polygon fill="#e5e5e5" stroke="black" points="262.5,-180 262.5,-234 583.5,-234 583.5,-180 262.5,-180"/>
<text text-anchor="middle" x="423" y="-217.4" font-family="Times Roman,serif" font-size="14.00">DicomToNifti_t2</text>
<polyline fill="none" stroke="black" points="262.5,-207 583.5,-207 "/>
<text text-anchor="middle" x="353" y="-190.4" font-family="Times Roman,serif" font-size="14.00">[M] dicom_image</text>
<polyline fill="none" stroke="black" points="443.5,-180 443.5,-207 "/>
<text text-anchor="middle" x="513.5" y="-190.4" font-family="Times Roman,serif" font-size="14.00">image [M]</text>
</g>
<!-- dcm_nii_resample_v2__mri_t2&#45;&gt;dcm_nii_resample_v2__DicomToNifti_t2 -->
<g id="edge4" class="edge"><title>dcm_nii_resample_v2__mri_t2:o_output&#45;&gt;dcm_nii_resample_v2__DicomToNifti_t2:i_dicom_image</title>
<path fill="none" stroke="black" d="M226,-193C238,-193 243.25,-193 251.875,-193"/>
<polygon fill="black" stroke="black" points="252,-196.5 262,-193 252,-189.5 252,-196.5"/>
</g>
<!-- dcm_nii_resample_v2__mri_t1gd -->
<g id="node3" class="node"><title>dcm_nii_resample_v2__mri_t1gd</title>
<polygon fill="#caff70" stroke="black" points="2,-331 2,-385 224,-385 224,-331 2,-331"/>
<text text-anchor="middle" x="113" y="-368.4" font-family="Times Roman,serif" font-size="14.00">mri_t1gd</text>
<polyline fill="none" stroke="black" points="2,-358 224,-358 "/>
<text text-anchor="middle" x="44" y="-341.4" font-family="Times Roman,serif" font-size="14.00"> </text>
<polyline fill="none" stroke="black" points="86,-331 86,-358 "/>
<text text-anchor="middle" x="155" y="-341.4" font-family="Times Roman,serif" font-size="14.00">output [O]</text>
</g>
<!-- dcm_nii_resample_v2__DicomToNifti_t1gd -->
<g id="node9" class="node"><title>dcm_nii_resample_v2__DicomToNifti_t1gd</title>
<polygon fill="#e5e5e5" stroke="black" points="265.5,-331 265.5,-385 580.5,-385 580.5,-331 265.5,-331"/>
<text text-anchor="middle" x="423" y="-368.4" font-family="Times Roman,serif" font-size="14.00">DicomToNifti_t1gd</text>
<polyline fill="none" stroke="black" points="265.5,-358 580.5,-358 "/>
<text text-anchor="middle" x="354.5" y="-341.4" font-family="Times Roman,serif" font-size="14.00">[O] dicom_image</text>
<polyline fill="none" stroke="black" points="443.5,-331 443.5,-358 "/>
<text text-anchor="middle" x="512" y="-341.4" font-family="Times Roman,serif" font-size="14.00">image [O]</text>
</g>
<!-- dcm_nii_resample_v2__mri_t1gd&#45;&gt;dcm_nii_resample_v2__DicomToNifti_t1gd -->
<g id="edge6" class="edge"><title>dcm_nii_resample_v2__mri_t1gd:o_output&#45;&gt;dcm_nii_resample_v2__DicomToNifti_t1gd:i_dicom_image</title>
<path fill="none" stroke="black" d="M224,-344C238.236,-344 244.131,-344 254.717,-344"/>
<polygon fill="black" stroke="black" points="255,-347.5 265,-344 255,-340.5 255,-347.5"/>
</g>
<!-- dcm_nii_resample_v2__mri_flair -->
<g id="node4" class="node"><title>dcm_nii_resample_v2__mri_flair</title>
<polygon fill="#caff70" stroke="black" points="3.5,-478 3.5,-532 222.5,-532 222.5,-478 3.5,-478"/>
<text text-anchor="middle" x="113" y="-515.4" font-family="Times Roman,serif" font-size="14.00">mri_flair</text>
<polyline fill="none" stroke="black" points="3.5,-505 222.5,-505 "/>
<text text-anchor="middle" x="45.5" y="-488.4" font-family="Times Roman,serif" font-size="14.00"> </text>
<polyline fill="none" stroke="black" points="87.5,-478 87.5,-505 "/>
<text text-anchor="middle" x="155" y="-488.4" font-family="Times Roman,serif" font-size="14.00">output [P]</text>
</g>
<!-- dcm_nii_resample_v2__DicomToNifti_flair -->
<g id="node11" class="node"><title>dcm_nii_resample_v2__DicomToNifti_flair</title>
<polygon fill="#e5e5e5" stroke="black" points="267.5,-478 267.5,-532 578.5,-532 578.5,-478 267.5,-478"/>
<text text-anchor="middle" x="423" y="-515.4" font-family="Times Roman,serif" font-size="14.00">DicomToNifti_flair</text>
<polyline fill="none" stroke="black" points="267.5,-505 578.5,-505 "/>
<text text-anchor="middle" x="355.5" y="-488.4" font-family="Times Roman,serif" font-size="14.00">[P] dicom_image</text>
<polyline fill="none" stroke="black" points="443.5,-478 443.5,-505 "/>
<text text-anchor="middle" x="511" y="-488.4" font-family="Times Roman,serif" font-size="14.00">image [P]</text>
</g>
<!-- dcm_nii_resample_v2__mri_flair&#45;&gt;dcm_nii_resample_v2__DicomToNifti_flair -->
<g id="edge8" class="edge"><title>dcm_nii_resample_v2__mri_flair:o_output&#45;&gt;dcm_nii_resample_v2__DicomToNifti_flair:i_dicom_image</title>
<path fill="none" stroke="black" d="M223,-491C238.583,-491 244.853,-491 256.653,-491"/>
<polygon fill="black" stroke="black" points="257,-494.5 267,-491 257,-487.5 257,-494.5"/>
</g>
<!-- dcm_nii_resample_v2__fslbet_t1 -->
<g id="node6" class="node"><title>dcm_nii_resample_v2__fslbet_t1</title>
<polygon fill="#e5e5e5" stroke="black" points="623,-0 623,-54 933,-54 933,-0 623,-0"/>
<text text-anchor="middle" x="778" y="-37.4" font-family="Times Roman,serif" font-size="14.00">fslbet_t1</text>
<polyline fill="none" stroke="black" points="623,-27 933,-27 "/>
<text text-anchor="middle" x="691.5" y="-10.4" font-family="Times Roman,serif" font-size="14.00">[N] image</text>
<polyline fill="none" stroke="black" points="760,-0 760,-27 "/>
<text text-anchor="middle" x="846.5" y="-10.4" font-family="Times Roman,serif" font-size="14.00">mask_image [N]</text>
</g>
<!-- dcm_nii_resample_v2__DicomToNifti_t1&#45;&gt;dcm_nii_resample_v2__fslbet_t1 -->
<g id="edge10" class="edge"><title>dcm_nii_resample_v2__DicomToNifti_t1:o_image&#45;&gt;dcm_nii_resample_v2__fslbet_t1:i_image</title>
<path fill="none" stroke="black" d="M581,-48C601.312,-48 600.035,-23.5423 613.262,-15.5171"/>
<polygon fill="black" stroke="black" points="614.194,-18.8914 623,-13 612.442,-12.1142 614.194,-18.8914"/>
</g>
<!-- dcm_nii_resample_v2__resample_t1 -->
<g id="node13" class="node"><title>dcm_nii_resample_v2__resample_t1</title>
<polygon fill="#e5e5e5" stroke="black" points="975.5,-20.5 975.5,-101.5 1312.5,-101.5 1312.5,-20.5 975.5,-20.5"/>
<text text-anchor="middle" x="1144" y="-84.9" font-family="Times Roman,serif" font-size="14.00">resample_t1</text>
<polyline fill="none" stroke="black" points="975.5,-74.5 1312.5,-74.5 "/>
<text text-anchor="middle" x="1044" y="-57.9" font-family="Times Roman,serif" font-size="14.00">[N] image</text>
<polyline fill="none" stroke="black" points="975.5,-47.5 1112.5,-47.5 "/>
<text text-anchor="middle" x="1044" y="-30.9" font-family="Times Roman,serif" font-size="14.00">[N] mask</text>
<polyline fill="none" stroke="black" points="1112.5,-20.5 1112.5,-74.5 "/>
<text text-anchor="middle" x="1212.5" y="-57.9" font-family="Times Roman,serif" font-size="14.00">image_resampled [N]</text>
<polyline fill="none" stroke="black" points="1112.5,-47.5 1312.5,-47.5 "/>
<text text-anchor="middle" x="1212.5" y="-30.9" font-family="Times Roman,serif" font-size="14.00">mask_resampled [N]</text>
</g>
<!-- dcm_nii_resample_v2__DicomToNifti_t1&#45;&gt;dcm_nii_resample_v2__resample_t1 -->
<g id="edge18" class="edge"><title>dcm_nii_resample_v2__DicomToNifti_t1:o_image&#45;&gt;dcm_nii_resample_v2__resample_t1:i_image</title>
<path fill="none" stroke="black" d="M581,-48C599.571,-48 601.741,-59.6097 620,-63 758.084,-88.6392 795.602,-66.5976 936,-63 949.419,-62.6561 955.028,-61.6478 964.911,-61.2085"/>
<polygon fill="black" stroke="black" points="965.074,-64.706 975,-61 964.93,-57.7075 965.074,-64.706"/>
</g>
<!-- dcm_nii_resample_v2__fslbet_t1&#45;&gt;dcm_nii_resample_v2__resample_t1 -->
<g id="edge26" class="edge"><title>dcm_nii_resample_v2__fslbet_t1:o_mask_image&#45;&gt;dcm_nii_resample_v2__resample_t1:i_mask</title>
<path fill="none" stroke="black" d="M933,-13C949.957,-13 953.308,-26.8633 965.163,-32.062"/>
<polygon fill="black" stroke="black" points="964.512,-35.501 975,-34 965.865,-28.633 964.512,-35.501"/>
</g>
<!-- dcm_nii_resample_v2__fslbet_t2 -->
<g id="node8" class="node"><title>dcm_nii_resample_v2__fslbet_t2</title>
<polygon fill="#e5e5e5" stroke="black" points="620,-146 620,-200 936,-200 936,-146 620,-146"/>
<text text-anchor="middle" x="778" y="-183.4" font-family="Times Roman,serif" font-size="14.00">fslbet_t2</text>
<polyline fill="none" stroke="black" points="620,-173 936,-173 "/>
<text text-anchor="middle" x="690" y="-156.4" font-family="Times Roman,serif" font-size="14.00">[M] image</text>
<polyline fill="none" stroke="black" points="760,-146 760,-173 "/>
<text text-anchor="middle" x="848" y="-156.4" font-family="Times Roman,serif" font-size="14.00">mask_image [M]</text>
</g>
<!-- dcm_nii_resample_v2__DicomToNifti_t2&#45;&gt;dcm_nii_resample_v2__fslbet_t2 -->
<g id="edge12" class="edge"><title>dcm_nii_resample_v2__DicomToNifti_t2:o_image&#45;&gt;dcm_nii_resample_v2__fslbet_t2:i_image</title>
<path fill="none" stroke="black" d="M584,-193C601.881,-193 599.943,-170.555 610.391,-162.138"/>
<polygon fill="black" stroke="black" points="611.58,-165.431 620,-159 609.408,-158.777 611.58,-165.431"/>
</g>
<!-- dcm_nii_resample_v2__resample_t2 -->
<g id="node14" class="node"><title>dcm_nii_resample_v2__resample_t2</title>
<polygon fill="#e5e5e5" stroke="black" points="972.5,-166.5 972.5,-247.5 1315.5,-247.5 1315.5,-166.5 972.5,-166.5"/>
<text text-anchor="middle" x="1144" y="-230.9" font-family="Times Roman,serif" font-size="14.00">resample_t2</text>
<polyline fill="none" stroke="black" points="972.5,-220.5 1315.5,-220.5 "/>
<text text-anchor="middle" x="1042.5" y="-203.9" font-family="Times Roman,serif" font-size="14.00">[M] image</text>
<polyline fill="none" stroke="black" points="972.5,-193.5 1112.5,-193.5 "/>
<text text-anchor="middle" x="1042.5" y="-176.9" font-family="Times Roman,serif" font-size="14.00">[M] mask</text>
<polyline fill="none" stroke="black" points="1112.5,-166.5 1112.5,-220.5 "/>
<text text-anchor="middle" x="1214" y="-203.9" font-family="Times Roman,serif" font-size="14.00">image_resampled [M]</text>
<polyline fill="none" stroke="black" points="1112.5,-193.5 1315.5,-193.5 "/>
<text text-anchor="middle" x="1214" y="-176.9" font-family="Times Roman,serif" font-size="14.00">mask_resampled [M]</text>
</g>
<!-- dcm_nii_resample_v2__DicomToNifti_t2&#45;&gt;dcm_nii_resample_v2__resample_t2 -->
<g id="edge20" class="edge"><title>dcm_nii_resample_v2__DicomToNifti_t2:o_image&#45;&gt;dcm_nii_resample_v2__resample_t2:i_image</title>
<path fill="none" stroke="black" d="M584,-193C601.509,-193 602.872,-205.365 620,-209 757.385,-238.155 795.61,-212.897 936,-209 948.014,-208.667 953.243,-207.708 961.867,-207.25"/>
<polygon fill="black" stroke="black" points="962.089,-210.746 972,-207 961.917,-203.748 962.089,-210.746"/>
</g>
<!-- dcm_nii_resample_v2__fslbet_t2&#45;&gt;dcm_nii_resample_v2__resample_t2 -->
<g id="edge28" class="edge"><title>dcm_nii_resample_v2__fslbet_t2:o_mask_image&#45;&gt;dcm_nii_resample_v2__resample_t2:i_mask</title>
<path fill="none" stroke="black" d="M936,-159C950.471,-159 952.998,-171.817 962.244,-177.425"/>
<polygon fill="black" stroke="black" points="961.438,-180.832 972,-180 963.224,-174.064 961.438,-180.832"/>
</g>
<!-- dcm_nii_resample_v2__fslbet_t1gd -->
<g id="node10" class="node"><title>dcm_nii_resample_v2__fslbet_t1gd</title>
<polygon fill="#e5e5e5" stroke="black" points="623,-297 623,-351 933,-351 933,-297 623,-297"/>
<text text-anchor="middle" x="778" y="-334.4" font-family="Times Roman,serif" font-size="14.00">fslbet_t1gd</text>
<polyline fill="none" stroke="black" points="623,-324 933,-324 "/>
<text text-anchor="middle" x="691.5" y="-307.4" font-family="Times Roman,serif" font-size="14.00">[O] image</text>
<polyline fill="none" stroke="black" points="760,-297 760,-324 "/>
<text text-anchor="middle" x="846.5" y="-307.4" font-family="Times Roman,serif" font-size="14.00">mask_image [O]</text>
</g>
<!-- dcm_nii_resample_v2__DicomToNifti_t1gd&#45;&gt;dcm_nii_resample_v2__fslbet_t1gd -->
<g id="edge14" class="edge"><title>dcm_nii_resample_v2__DicomToNifti_t1gd:o_image&#45;&gt;dcm_nii_resample_v2__fslbet_t1gd:i_image</title>
<path fill="none" stroke="black" d="M581,-344C600.889,-344 600.17,-320.683 612.974,-312.668"/>
<polygon fill="black" stroke="black" points="614.236,-315.954 623,-310 612.436,-309.189 614.236,-315.954"/>
</g>
<!-- dcm_nii_resample_v2__resample_t1gd -->
<g id="node15" class="node"><title>dcm_nii_resample_v2__resample_t1gd</title>
<polygon fill="#e5e5e5" stroke="black" points="975.5,-313.5 975.5,-394.5 1312.5,-394.5 1312.5,-313.5 975.5,-313.5"/>
<text text-anchor="middle" x="1144" y="-377.9" font-family="Times Roman,serif" font-size="14.00">resample_t1gd</text>
<polyline fill="none" stroke="black" points="975.5,-367.5 1312.5,-367.5 "/>
<text text-anchor="middle" x="1044" y="-350.9" font-family="Times Roman,serif" font-size="14.00">[O] image</text>
<polyline fill="none" stroke="black" points="975.5,-340.5 1112.5,-340.5 "/>
<text text-anchor="middle" x="1044" y="-323.9" font-family="Times Roman,serif" font-size="14.00">[O] mask</text>
<polyline fill="none" stroke="black" points="1112.5,-313.5 1112.5,-367.5 "/>
<text text-anchor="middle" x="1212.5" y="-350.9" font-family="Times Roman,serif" font-size="14.00">image_resampled [O]</text>
<polyline fill="none" stroke="black" points="1112.5,-340.5 1312.5,-340.5 "/>
<text text-anchor="middle" x="1212.5" y="-323.9" font-family="Times Roman,serif" font-size="14.00">mask_resampled [O]</text>
</g>
<!-- dcm_nii_resample_v2__DicomToNifti_t1gd&#45;&gt;dcm_nii_resample_v2__resample_t1gd -->
<g id="edge22" class="edge"><title>dcm_nii_resample_v2__DicomToNifti_t1gd:o_image&#45;&gt;dcm_nii_resample_v2__resample_t1gd:i_image</title>
<path fill="none" stroke="black" d="M581,-344C599.735,-344 601.619,-356.376 620,-360 757.792,-387.166 795.964,-370.709 936,-360 949.524,-358.966 954.967,-355.942 964.854,-354.625"/>
<polygon fill="black" stroke="black" points="965.234,-358.108 975,-354 964.804,-351.122 965.234,-358.108"/>
</g>
<!-- dcm_nii_resample_v2__fslbet_t1gd&#45;&gt;dcm_nii_resample_v2__resample_t1gd -->
<g id="edge30" class="edge"><title>dcm_nii_resample_v2__fslbet_t1gd:o_mask_image&#45;&gt;dcm_nii_resample_v2__resample_t1gd:i_mask</title>
<path fill="none" stroke="black" d="M933,-310C949.205,-310 953.486,-321.008 965.033,-325.308"/>
<polygon fill="black" stroke="black" points="964.555,-328.777 975,-327 965.727,-321.875 964.555,-328.777"/>
</g>
<!-- dcm_nii_resample_v2__fslbet_flair -->
<g id="node12" class="node"><title>dcm_nii_resample_v2__fslbet_flair</title>
<polygon fill="#e5e5e5" stroke="black" points="625,-444 625,-498 931,-498 931,-444 625,-444"/>
<text text-anchor="middle" x="778" y="-481.4" font-family="Times Roman,serif" font-size="14.00">fslbet_flair</text>
<polyline fill="none" stroke="black" points="625,-471 931,-471 "/>
<text text-anchor="middle" x="692.5" y="-454.4" font-family="Times Roman,serif" font-size="14.00">[P] image</text>
<polyline fill="none" stroke="black" points="760,-444 760,-471 "/>
<text text-anchor="middle" x="845.5" y="-454.4" font-family="Times Roman,serif" font-size="14.00">mask_image [P]</text>
</g>
<!-- dcm_nii_resample_v2__DicomToNifti_flair&#45;&gt;dcm_nii_resample_v2__fslbet_flair -->
<g id="edge16" class="edge"><title>dcm_nii_resample_v2__DicomToNifti_flair:o_image&#45;&gt;dcm_nii_resample_v2__fslbet_flair:i_image</title>
<path fill="none" stroke="black" d="M579,-491C600.451,-491 600.352,-466.795 615.069,-459.231"/>
<polygon fill="black" stroke="black" points="616.01,-462.607 625,-457 614.476,-455.777 616.01,-462.607"/>
</g>
<!-- dcm_nii_resample_v2__resample_flair -->
<g id="node16" class="node"><title>dcm_nii_resample_v2__resample_flair</title>
<polygon fill="#e5e5e5" stroke="black" points="977.5,-457.5 977.5,-538.5 1310.5,-538.5 1310.5,-457.5 977.5,-457.5"/>
<text text-anchor="middle" x="1144" y="-521.9" font-family="Times Roman,serif" font-size="14.00">resample_flair</text>
<polyline fill="none" stroke="black" points="977.5,-511.5 1310.5,-511.5 "/>
<text text-anchor="middle" x="1045" y="-494.9" font-family="Times Roman,serif" font-size="14.00">[P] image</text>
<polyline fill="none" stroke="black" points="977.5,-484.5 1112.5,-484.5 "/>
<text text-anchor="middle" x="1045" y="-467.9" font-family="Times Roman,serif" font-size="14.00">[P] mask</text>
<polyline fill="none" stroke="black" points="1112.5,-457.5 1112.5,-511.5 "/>
<text text-anchor="middle" x="1211.5" y="-494.9" font-family="Times Roman,serif" font-size="14.00">image_resampled [P]</text>
<polyline fill="none" stroke="black" points="1112.5,-484.5 1310.5,-484.5 "/>
<text text-anchor="middle" x="1211.5" y="-467.9" font-family="Times Roman,serif" font-size="14.00">mask_resampled [P]</text>
</g>
<!-- dcm_nii_resample_v2__DicomToNifti_flair&#45;&gt;dcm_nii_resample_v2__resample_flair -->
<g id="edge24" class="edge"><title>dcm_nii_resample_v2__DicomToNifti_flair:o_image&#45;&gt;dcm_nii_resample_v2__resample_flair:i_image</title>
<path fill="none" stroke="black" d="M579,-491C598.561,-491 600.777,-503.382 620,-507 758.021,-532.977 796.374,-522.144 936,-507 950.635,-505.413 956.086,-500.727 966.9,-498.821"/>
<polygon fill="black" stroke="black" points="967.316,-502.298 977,-498 966.749,-495.321 967.316,-502.298"/>
</g>
<!-- dcm_nii_resample_v2__fslbet_flair&#45;&gt;dcm_nii_resample_v2__resample_flair -->
<g id="edge32" class="edge"><title>dcm_nii_resample_v2__fslbet_flair:o_mask_image&#45;&gt;dcm_nii_resample_v2__resample_flair:i_mask</title>
<path fill="none" stroke="black" d="M931,-457C948.53,-457 953.874,-466.421 967.024,-469.806"/>
<polygon fill="black" stroke="black" points="966.655,-473.287 977,-471 967.487,-466.337 966.655,-473.287"/>
</g>
<!-- dcm_nii_resample_v2__resampled_image_t1 -->
<g id="node17" class="node"><title>dcm_nii_resample_v2__resampled_image_t1</title>
<polygon fill="#b0e2ff" stroke="black" points="1353.5,-76 1353.5,-130 1568.5,-130 1568.5,-76 1353.5,-76"/>
<text text-anchor="middle" x="1461" y="-113.4" font-family="Times Roman,serif" font-size="14.00">resampled_image_t1</text>
<polyline fill="none" stroke="black" points="1353.5,-103 1568.5,-103 "/>
<text text-anchor="middle" x="1419" y="-86.4" font-family="Times Roman,serif" font-size="14.00">[N] input</text>
<polyline fill="none" stroke="black" points="1484.5,-76 1484.5,-103 "/>
<text text-anchor="middle" x="1526.5" y="-86.4" font-family="Times Roman,serif" font-size="14.00"> </text>
</g>
<!-- dcm_nii_resample_v2__resample_t1&#45;&gt;dcm_nii_resample_v2__resampled_image_t1 -->
<g id="edge34" class="edge"><title>dcm_nii_resample_v2__resample_t1:o_image_resampled&#45;&gt;dcm_nii_resample_v2__resampled_image_t1:i_input</title>
<path fill="none" stroke="black" d="M1313,-61C1330.63,-61 1331.69,-79.4844 1343.11,-86.416"/>
<polygon fill="black" stroke="black" points="1342.44,-89.8584 1353,-89 1344.21,-83.0857 1342.44,-89.8584"/>
</g>
<!-- dcm_nii_resample_v2__resampled_mask_t1 -->
<g id="node21" class="node"><title>dcm_nii_resample_v2__resampled_mask_t1</title>
<polygon fill="#b0e2ff" stroke="black" points="1353.5,-4 1353.5,-58 1568.5,-58 1568.5,-4 1353.5,-4"/>
<text text-anchor="middle" x="1461" y="-41.4" font-family="Times Roman,serif" font-size="14.00">resampled_mask_t1</text>
<polyline fill="none" stroke="black" points="1353.5,-31 1568.5,-31 "/>
<text text-anchor="middle" x="1419" y="-14.4" font-family="Times Roman,serif" font-size="14.00">[N] input</text>
<polyline fill="none" stroke="black" points="1484.5,-4 1484.5,-31 "/>
<text text-anchor="middle" x="1526.5" y="-14.4" font-family="Times Roman,serif" font-size="14.00"> </text>
</g>
<!-- dcm_nii_resample_v2__resample_t1&#45;&gt;dcm_nii_resample_v2__resampled_mask_t1 -->
<g id="edge42" class="edge"><title>dcm_nii_resample_v2__resample_t1:o_mask_resampled&#45;&gt;dcm_nii_resample_v2__resampled_mask_t1:i_input</title>
<path fill="none" stroke="black" d="M1313,-34C1328.39,-34 1332.39,-23.2048 1343.15,-18.8193"/>
<polygon fill="black" stroke="black" points="1343.8,-22.2581 1353,-17 1342.53,-15.3746 1343.8,-22.2581"/>
</g>
<!-- dcm_nii_resample_v2__resampled_image_t2 -->
<g id="node18" class="node"><title>dcm_nii_resample_v2__resampled_image_t2</title>
<polygon fill="#b0e2ff" stroke="black" points="1352,-220 1352,-274 1570,-274 1570,-220 1352,-220"/>
<text text-anchor="middle" x="1461" y="-257.4" font-family="Times Roman,serif" font-size="14.00">resampled_image_t2</text>
<polyline fill="none" stroke="black" points="1352,-247 1570,-247 "/>
<text text-anchor="middle" x="1419" y="-230.4" font-family="Times Roman,serif" font-size="14.00">[M] input</text>
<polyline fill="none" stroke="black" points="1486,-220 1486,-247 "/>
<text text-anchor="middle" x="1528" y="-230.4" font-family="Times Roman,serif" font-size="14.00"> </text>
</g>
<!-- dcm_nii_resample_v2__resample_t2&#45;&gt;dcm_nii_resample_v2__resampled_image_t2 -->
<g id="edge36" class="edge"><title>dcm_nii_resample_v2__resample_t2:o_image_resampled&#45;&gt;dcm_nii_resample_v2__resampled_image_t2:i_input</title>
<path fill="none" stroke="black" d="M1316,-207C1331.57,-207 1332.7,-223.188 1342.17,-230.017"/>
<polygon fill="black" stroke="black" points="1341.41,-233.445 1352,-233 1343.45,-226.747 1341.41,-233.445"/>
</g>
<!-- dcm_nii_resample_v2__resampled_mask_t2 -->
<g id="node22" class="node"><title>dcm_nii_resample_v2__resampled_mask_t2</title>
<polygon fill="#b0e2ff" stroke="black" points="1352,-148 1352,-202 1570,-202 1570,-148 1352,-148"/>
<text text-anchor="middle" x="1461" y="-185.4" font-family="Times Roman,serif" font-size="14.00">resampled_mask_t2</text>
<polyline fill="none" stroke="black" points="1352,-175 1570,-175 "/>
<text text-anchor="middle" x="1419" y="-158.4" font-family="Times Roman,serif" font-size="14.00">[M] input</text>
<polyline fill="none" stroke="black" points="1486,-148 1486,-175 "/>
<text text-anchor="middle" x="1528" y="-158.4" font-family="Times Roman,serif" font-size="14.00"> </text>
</g>
<!-- dcm_nii_resample_v2__resample_t2&#45;&gt;dcm_nii_resample_v2__resampled_mask_t2 -->
<g id="edge44" class="edge"><title>dcm_nii_resample_v2__resample_t2:o_mask_resampled&#45;&gt;dcm_nii_resample_v2__resampled_mask_t2:i_input</title>
<path fill="none" stroke="black" d="M1316,-180C1329.99,-180 1333.05,-168.634 1342.09,-163.484"/>
<polygon fill="black" stroke="black" points="1343.15,-166.827 1352,-161 1341.45,-160.037 1343.15,-166.827"/>
</g>
<!-- dcm_nii_resample_v2__resampled_image_t1gd -->
<g id="node19" class="node"><title>dcm_nii_resample_v2__resampled_image_t1gd</title>
<polygon fill="#b0e2ff" stroke="black" points="1353.5,-364 1353.5,-418 1568.5,-418 1568.5,-364 1353.5,-364"/>
<text text-anchor="middle" x="1461" y="-401.4" font-family="Times Roman,serif" font-size="14.00">resampled_image_t1gd</text>
<polyline fill="none" stroke="black" points="1353.5,-391 1568.5,-391 "/>
<text text-anchor="middle" x="1419" y="-374.4" font-family="Times Roman,serif" font-size="14.00">[O] input</text>
<polyline fill="none" stroke="black" points="1484.5,-364 1484.5,-391 "/>
<text text-anchor="middle" x="1526.5" y="-374.4" font-family="Times Roman,serif" font-size="14.00"> </text>
</g>
<!-- dcm_nii_resample_v2__resample_t1gd&#45;&gt;dcm_nii_resample_v2__resampled_image_t1gd -->
<g id="edge38" class="edge"><title>dcm_nii_resample_v2__resample_t1gd:o_image_resampled&#45;&gt;dcm_nii_resample_v2__resampled_image_t1gd:i_input</title>
<path fill="none" stroke="black" d="M1313,-354C1329.5,-354 1332.07,-368.893 1343.13,-374.711"/>
<polygon fill="black" stroke="black" points="1342.47,-378.151 1353,-377 1344.05,-371.332 1342.47,-378.151"/>
</g>
<!-- dcm_nii_resample_v2__resampled_mask_t1gd -->
<g id="node23" class="node"><title>dcm_nii_resample_v2__resampled_mask_t1gd</title>
<polygon fill="#b0e2ff" stroke="black" points="1353.5,-292 1353.5,-346 1568.5,-346 1568.5,-292 1353.5,-292"/>
<text text-anchor="middle" x="1461" y="-329.4" font-family="Times Roman,serif" font-size="14.00">resampled_mask_t1gd</text>
<polyline fill="none" stroke="black" points="1353.5,-319 1568.5,-319 "/>
<text text-anchor="middle" x="1419" y="-302.4" font-family="Times Roman,serif" font-size="14.00">[O] input</text>
<polyline fill="none" stroke="black" points="1484.5,-292 1484.5,-319 "/>
<text text-anchor="middle" x="1526.5" y="-302.4" font-family="Times Roman,serif" font-size="14.00"> </text>
</g>
<!-- dcm_nii_resample_v2__resample_t1gd&#45;&gt;dcm_nii_resample_v2__resampled_mask_t1gd -->
<g id="edge46" class="edge"><title>dcm_nii_resample_v2__resample_t1gd:o_mask_resampled&#45;&gt;dcm_nii_resample_v2__resampled_mask_t1gd:i_input</title>
<path fill="none" stroke="black" d="M1313,-327C1329.33,-327 1332.14,-312.755 1343.19,-307.19"/>
<polygon fill="black" stroke="black" points="1344,-310.594 1353,-305 1342.48,-303.763 1344,-310.594"/>
</g>
<!-- dcm_nii_resample_v2__resampled_image_flair -->
<g id="node20" class="node"><title>dcm_nii_resample_v2__resampled_image_flair</title>
<polygon fill="#b0e2ff" stroke="black" points="1354.5,-508 1354.5,-562 1567.5,-562 1567.5,-508 1354.5,-508"/>
<text text-anchor="middle" x="1461" y="-545.4" font-family="Times Roman,serif" font-size="14.00">resampled_image_flair</text>
<polyline fill="none" stroke="black" points="1354.5,-535 1567.5,-535 "/>
<text text-anchor="middle" x="1419" y="-518.4" font-family="Times Roman,serif" font-size="14.00">[P] input</text>
<polyline fill="none" stroke="black" points="1483.5,-508 1483.5,-535 "/>
<text text-anchor="middle" x="1525.5" y="-518.4" font-family="Times Roman,serif" font-size="14.00"> </text>
</g>
<!-- dcm_nii_resample_v2__resample_flair&#45;&gt;dcm_nii_resample_v2__resampled_image_flair -->
<g id="edge40" class="edge"><title>dcm_nii_resample_v2__resample_flair:o_image_resampled&#45;&gt;dcm_nii_resample_v2__resampled_image_flair:i_input</title>
<path fill="none" stroke="black" d="M1311,-498C1328.61,-498 1331.68,-513.184 1343.84,-518.877"/>
<polygon fill="black" stroke="black" points="1343.5,-522.381 1354,-521 1344.93,-515.529 1343.5,-522.381"/>
</g>
<!-- dcm_nii_resample_v2__resampled_mask_flair -->
<g id="node24" class="node"><title>dcm_nii_resample_v2__resampled_mask_flair</title>
<polygon fill="#b0e2ff" stroke="black" points="1354.5,-436 1354.5,-490 1567.5,-490 1567.5,-436 1354.5,-436"/>
<text text-anchor="middle" x="1461" y="-473.4" font-family="Times Roman,serif" font-size="14.00">resampled_mask_flair</text>
<polyline fill="none" stroke="black" points="1354.5,-463 1567.5,-463 "/>
<text text-anchor="middle" x="1419" y="-446.4" font-family="Times Roman,serif" font-size="14.00">[P] input</text>
<polyline fill="none" stroke="black" points="1483.5,-436 1483.5,-463 "/>
<text text-anchor="middle" x="1525.5" y="-446.4" font-family="Times Roman,serif" font-size="14.00"> </text>
</g>
<!-- dcm_nii_resample_v2__resample_flair&#45;&gt;dcm_nii_resample_v2__resampled_mask_flair -->
<g id="edge48" class="edge"><title>dcm_nii_resample_v2__resample_flair:o_mask_resampled&#45;&gt;dcm_nii_resample_v2__resampled_mask_flair:i_input</title>
<path fill="none" stroke="black" d="M1311,-471C1328.44,-471 1331.76,-456.477 1343.9,-451.03"/>
<polygon fill="black" stroke="black" points="1344.89,-454.402 1354,-449 1343.51,-447.539 1344.89,-454.402"/>
</g>
</g>
</svg>
